<?xml version="1.0" standalone="no"?>
<!DOCTYPE svg PUBLIC "-//W3C//DTD SVG 20010904//EN"
 "http://www.w3.org/TR/2001/REC-SVG-20010904/DTD/svg10.dtd">
<svg version="1.0" xmlns="http://www.w3.org/2000/svg"
 width="169.000000pt" height="169.000000pt" viewBox="0 0 169.000000 169.000000"
 preserveAspectRatio="xMidYMid meet">
<metadata>
Created by potrace 1.11, written by Peter Selinger 2001-2013
</metadata>
<g transform="translate(0.000000,169.000000) scale(0.100000,-0.100000)"
fill="#000000" stroke="none">
<path d="M21 1404 c-21 -15 -21 -18 -21 -553 0 -442 2 -541 14 -556 12 -17 28
-19 116 -20 149 -1 140 -17 140 241 l0 214 153 0 c194 0 190 -2 192 114 2 130
7 126 -186 126 l-159 0 0 104 0 104 206 0 c158 0 210 4 220 14 7 7 13 40 14
78 3 124 2 127 -27 138 -18 7 -138 11 -335 11 -252 -1 -310 -3 -327 -15z"/>
<path d="M800 1400 c-11 -11 -20 -24 -20 -28 0 -4 71 -125 159 -267 l159 -259
-68 -110 c-38 -61 -107 -174 -154 -251 -47 -77 -86 -150 -86 -162 0 -37 30
-49 122 -47 45 1 88 2 95 3 7 0 45 56 84 124 40 67 87 146 104 175 l33 53 19
-28 c11 -15 57 -90 103 -166 46 -76 93 -145 104 -152 28 -17 189 -14 210 4 9
8 16 22 16 33 0 11 -37 79 -81 151 -45 73 -115 186 -156 253 l-74 120 156 252
c85 139 155 262 155 273 0 40 -23 49 -122 49 -85 -1 -128 -12 -128 -33 0 -3
-43 -78 -96 -167 l-96 -161 -100 163 c-55 90 -107 171 -116 181 -12 14 -32 17
-109 17 -80 0 -96 -3 -113 -20z"/>
</g>
</svg>
